M48
;DRILL file {KiCad 4.0.4-stable} date 02/10/17 17:21:12
;FORMAT={-:-/ absolute / metric / decimal}
FMAT,2
METRIC,TZ
T1C0.600
T2C0.635
T3C0.650
T4C0.800
T5C0.840
T6C0.900
T7C1.000
T8C1.001
T9C1.016
T10C2.800
%
G90
G05
M71
T2
X169.Y-66.6
X169.Y-69.1
X169.Y-71.6
X169.Y-77.
X169.Y-80.
X169.Y-83.
X169.Y-88.
X169.Y-91.
X169.Y-94.
X171.Y-52.5
X171.6Y-59.2
X173.3Y-124.9
X174.Y-66.2
X174.Y-67.8
X174.Y-69.2
X174.Y-70.6
X174.Y-93.
X174.Y-94.4
X174.4Y-82.8
X174.6Y-79.
X177.6Y-88.2
X177.6Y-92.2
X177.8Y-82.
X178.518Y-122.607
X178.6Y-127.5
X182.4Y-125.2
X184.4Y-94.5
X186.Y-88.2
X186.Y-89.8
X186.6Y-128.8
X187.Y-121.7
X187.2Y-89.
X188.196Y-47.169
X189.2Y-87.8
X189.8Y-93.6
X190.2Y-86.2
X190.6Y-95.6
X190.8Y-92.8
X190.9Y-102.5
X191.Y-87.2
X191.Y-94.2
X191.4Y-86.
X192.Y-55.7
X195.1Y-55.9
X195.2Y-103.1
X195.8Y-80.4
X197.187Y-119.813
X197.4Y-130.1
X198.9Y-121.9
X199.3Y-92.9
X199.5Y-55.9
X199.7Y-81.7
X199.714Y-118.702
X199.8Y-63.8
X200.9Y-88.6
X201.9Y-72.6
X202.1Y-64.3
X202.2Y-113.6
X203.Y-99.6
X204.Y-81.75
X204.Y-84.5
X204.5Y-104.3
X204.6Y-90.
X204.966Y-88.889
X205.6Y-79.6
X206.Y-64.8
X206.Y-92.4
X206.1Y-71.9
X206.5Y-121.75
X206.8Y-102.4
X206.961Y-120.659
X207.Y-114.4
X207.4Y-129.1
X207.5Y-86.
X207.9Y-78.6
X208.Y-61.
X208.4Y-117.2
X208.764Y-85.955
X208.9Y-51.9
X208.9Y-89.5
X209.1Y-92.9
X209.184Y-118.401
X209.23Y-101.904
X209.5Y-122.5
X209.6Y-126.2
X210.2Y-118.4
X210.4Y-123.4
X210.7Y-92.8
X211.Y-62.25
X211.Y-64.7
X211.Y-66.8
X211.Y-98.6
X211.Y-126.7
X211.3Y-44.7
X211.8Y-94.2
X211.8Y-120.9
X211.864Y-130.201
X212.4Y-51.2
X212.6Y-126.6
X212.628Y-88.872
X212.797Y-97.426
X212.851Y-69.361
X213.8Y-94.4
X213.9Y-85.
X214.257Y-116.8
X214.5Y-121.1
X214.6Y-45.3
X214.795Y-94.812
X214.8Y-97.4
X216.3Y-129.7
X216.589Y-117.007
X216.894Y-84.588
X217.7Y-77.3
X218.284Y-122.484
X218.5Y-69.6
X218.887Y-94.179
X219.223Y-122.096
X219.79Y-93.06
X219.897Y-94.456
X220.014Y-125.599
X220.3Y-63.5
X220.6Y-67.1
X221.213Y-93.504
X221.294Y-94.517
X221.523Y-120.323
X222.1Y-79.5
X222.2Y-86.5
X227.201Y-89.1
X227.6Y-79.3
X228.Y-129.612
X232.3Y-104.8
X233.2Y-110.6
X233.7Y-73.5
X234.1Y-121.5
X234.3Y-113.8
X234.3Y-115.2
X234.7Y-65.1
X237.Y-71.4
X237.4Y-65.2
X238.Y-104.9
X238.8Y-66.5
X239.8Y-64.9
X240.4Y-106.
X241.Y-115.1
X241.8Y-60.3
X241.9Y-58.8
X242.7Y-65.
X242.9Y-66.5
X243.3Y-122.1
X243.5Y-76.
X246.5Y-117.
T4
X200.095Y-96.2
X204.975Y-96.2
X231.Y-76.375
X231.Y-78.915
X231.Y-81.455
X231.Y-83.995
X231.Y-86.535
X231.Y-89.075
X231.Y-91.615
X231.Y-94.155
X231.Y-96.695
X231.Y-99.235
X238.62Y-76.375
X238.62Y-78.915
X238.62Y-81.455
X238.62Y-83.995
X238.62Y-86.535
X238.62Y-89.075
X238.62Y-91.615
X238.62Y-94.155
X238.62Y-96.695
X238.62Y-99.235
X243.205Y-80.62
X243.205Y-83.16
X243.205Y-85.7
X243.205Y-88.24
X243.205Y-90.78
X243.205Y-93.32
X243.205Y-95.86
X243.205Y-98.4
X250.825Y-80.62
X250.825Y-83.16
X250.825Y-85.7
X250.825Y-88.24
X250.825Y-90.78
X250.825Y-93.32
X250.825Y-95.86
X250.825Y-98.4
T5
X165.73Y-46.73
X165.73Y-49.27
X165.73Y-52.73
X165.73Y-55.27
X165.73Y-58.73
X165.73Y-61.27
X165.73Y-97.73
X165.73Y-100.27
X165.73Y-103.73
X165.73Y-106.27
X165.73Y-109.73
X165.73Y-112.27
X167.Y-48.
X167.Y-54.
X167.Y-60.
X167.Y-99.
X167.Y-105.
X167.Y-111.
X168.27Y-46.73
X168.27Y-49.27
X168.27Y-52.73
X168.27Y-55.27
X168.27Y-58.73
X168.27Y-61.27
X168.27Y-97.73
X168.27Y-100.27
X168.27Y-103.73
X168.27Y-106.27
X168.27Y-109.73
X168.27Y-112.27
T6
X171.Y-65.
X171.Y-67.
X171.Y-69.
X171.Y-71.
X171.Y-73.
X171.Y-76.
X171.Y-78.
X171.Y-80.
X171.Y-82.
X171.Y-84.
X171.Y-87.
X171.Y-89.
X171.Y-91.
X171.Y-93.
X171.Y-95.
X176.Y-65.
X176.Y-67.
X176.Y-69.
X176.Y-71.
X176.Y-73.
X176.Y-76.
X176.Y-78.
X176.Y-80.
X176.Y-82.
X176.Y-84.
X176.Y-87.
X176.Y-89.
X176.Y-91.
X176.Y-93.
X176.Y-95.
T7
X178.75Y-48.25
X178.75Y-50.79
X178.75Y-55.25
X178.75Y-57.79
X181.29Y-48.25
X181.29Y-50.79
X181.29Y-55.25
X181.29Y-57.79
X181.6Y-61.8
X181.6Y-64.34
X181.6Y-68.8
X181.6Y-71.34
X184.14Y-61.8
X184.14Y-64.34
X184.14Y-68.8
X184.14Y-71.34
X194.5Y-45.
X194.5Y-47.54
X194.5Y-51.
X194.5Y-53.54
X197.04Y-45.
X197.04Y-47.54
X197.04Y-51.
X197.04Y-53.54
X214.96Y-59.71
X214.96Y-62.25
X217.5Y-59.71
X217.5Y-62.25
X229.9Y-56.3
X232.44Y-56.3
X234.98Y-56.3
X254.62Y-45.63
X254.62Y-48.17
X254.62Y-50.71
X254.62Y-53.25
X254.62Y-55.79
X254.62Y-58.33
X254.62Y-60.87
X254.62Y-63.41
X254.62Y-65.95
X254.62Y-68.49
X254.62Y-71.03
X254.62Y-73.57
X254.62Y-76.11
X254.62Y-78.65
X254.62Y-81.19
X254.62Y-83.73
X254.62Y-86.27
X254.62Y-88.81
X254.62Y-91.35
X254.62Y-93.89
X254.62Y-96.43
X254.62Y-98.97
X254.62Y-101.51
X254.62Y-104.05
X254.62Y-106.59
X254.62Y-109.13
X254.62Y-111.67
X254.62Y-114.21
X254.62Y-116.75
X254.62Y-119.29
X254.62Y-121.83
X254.62Y-124.37
X257.16Y-45.63
X257.16Y-48.17
X257.16Y-50.71
X257.16Y-53.25
X257.16Y-55.79
X257.16Y-58.33
X257.16Y-60.87
X257.16Y-63.41
X257.16Y-65.95
X257.16Y-68.49
X257.16Y-71.03
X257.16Y-73.57
X257.16Y-76.11
X257.16Y-78.65
X257.16Y-81.19
X257.16Y-83.73
X257.16Y-86.27
X257.16Y-88.81
X257.16Y-91.35
X257.16Y-93.89
X257.16Y-96.43
X257.16Y-98.97
X257.16Y-101.51
X257.16Y-104.05
X257.16Y-106.59
X257.16Y-109.13
X257.16Y-111.67
X257.16Y-114.21
X257.16Y-116.75
X257.16Y-119.29
X257.16Y-121.83
X257.16Y-124.37
X259.7Y-45.63
X259.7Y-48.17
X259.7Y-50.71
X259.7Y-53.25
X259.7Y-55.79
X259.7Y-58.33
X259.7Y-60.87
X259.7Y-63.41
X259.7Y-65.95
X259.7Y-68.49
X259.7Y-71.03
X259.7Y-73.57
X259.7Y-76.11
X259.7Y-78.65
X259.7Y-81.19
X259.7Y-83.73
X259.7Y-86.27
X259.7Y-88.81
X259.7Y-91.35
X259.7Y-93.89
X259.7Y-96.43
X259.7Y-98.97
X259.7Y-101.51
X259.7Y-104.05
X259.7Y-106.59
X259.7Y-109.13
X259.7Y-111.67
X259.7Y-114.21
X259.7Y-116.75
X259.7Y-119.29
X259.7Y-121.83
X259.7Y-124.37
T8
X247.1Y-123.101
X247.1Y-128.102
T9
X218.Y-108.96
X218.Y-111.5
X218.Y-114.04
X220.54Y-108.96
X220.54Y-111.5
X220.54Y-114.04
X229.Y-108.42
X229.Y-110.96
X229.Y-113.5
T10
X168.57Y-40.55
X168.57Y-129.45
X262.24Y-40.55
X262.24Y-129.45
T1
X166.8Y-115.825G85X166.1Y-115.825
G05
X166.8Y-124.175G85X166.1Y-124.175
G05
T3
X169.55Y-117.775G85X169.35Y-117.775
G05
X169.55Y-122.225G85X169.35Y-122.225
G05
T7
X220.8Y-49.G85X220.8Y-47.
G05
X224.8Y-43.3G85X222.8Y-43.3
G05
X226.8Y-49.G85X226.8Y-47.
G05
T0
M30
