G04 #@! TF.FileFunction,Soldermask,Bot*
%FSLAX46Y46*%
G04 Gerber Fmt 4.6, Leading zero omitted, Abs format (unit mm)*
G04 Created by KiCad (PCBNEW 4.0.4-stable) date 03/01/17 18:05:16*
%MOMM*%
%LPD*%
G01*
G04 APERTURE LIST*
%ADD10C,0.150000*%
%ADD11R,1.700000X1.700000*%
%ADD12O,1.700000X1.700000*%
%ADD13R,1.727200X1.727200*%
%ADD14O,1.727200X1.727200*%
%ADD15O,1.900000X1.000000*%
%ADD16O,1.250000X1.050000*%
%ADD17R,2.032000X1.727200*%
%ADD18O,2.032000X1.727200*%
%ADD19C,1.998980*%
%ADD20C,1.501140*%
%ADD21C,4.000000*%
%ADD22C,4.500000*%
%ADD23R,3.500000X3.500000*%
%ADD24C,1.500000*%
%ADD25R,2.400000X1.600000*%
%ADD26O,2.400000X1.600000*%
%ADD27C,1.200000*%
G04 APERTURE END LIST*
D10*
D11*
X178750000Y-55250000D03*
D12*
X181290000Y-55250000D03*
X178750000Y-57790000D03*
X181290000Y-57790000D03*
D13*
X220540000Y-114040000D03*
D14*
X218000000Y-114040000D03*
X220540000Y-111500000D03*
X218000000Y-111500000D03*
X220540000Y-108960000D03*
X218000000Y-108960000D03*
D15*
X166450000Y-115825000D03*
X166450000Y-124175000D03*
D16*
X169450000Y-117775000D03*
X169450000Y-122225000D03*
D17*
X229000000Y-113500000D03*
D18*
X229000000Y-110960000D03*
X229000000Y-108420000D03*
D19*
X247100000Y-123100640D03*
X247100000Y-128101900D03*
D20*
X259700000Y-45630000D03*
X259700000Y-48170000D03*
X259700000Y-53250000D03*
X259700000Y-50710000D03*
X259700000Y-55790000D03*
X259700000Y-58330000D03*
X259700000Y-60870000D03*
X259700000Y-63410000D03*
X259700000Y-65950000D03*
X259700000Y-68490000D03*
X259700000Y-71030000D03*
X259700000Y-73570000D03*
X259700000Y-76110000D03*
X259700000Y-78650000D03*
X259700000Y-81190000D03*
X259700000Y-83730000D03*
X259700000Y-86270000D03*
X259700000Y-88810000D03*
X259700000Y-91350000D03*
X259700000Y-93890000D03*
X259700000Y-96430000D03*
X259700000Y-98970000D03*
X259700000Y-101510000D03*
X259700000Y-104050000D03*
X259700000Y-106590000D03*
X259700000Y-109130000D03*
X259700000Y-111670000D03*
X259700000Y-114210000D03*
X259700000Y-116750000D03*
X259700000Y-119290000D03*
X259700000Y-121830000D03*
X259700000Y-124370000D03*
X257160000Y-124370000D03*
X257160000Y-121830000D03*
X257160000Y-119290000D03*
X257160000Y-116750000D03*
X257160000Y-114210000D03*
X257160000Y-111670000D03*
X257160000Y-109130000D03*
X257160000Y-106590000D03*
X257160000Y-104050000D03*
X257160000Y-101510000D03*
X257160000Y-98970000D03*
X257160000Y-96430000D03*
X257160000Y-93890000D03*
X257160000Y-91350000D03*
X257160000Y-88810000D03*
X257160000Y-86270000D03*
X257160000Y-83730000D03*
X257160000Y-81190000D03*
X257160000Y-78650000D03*
X257160000Y-76110000D03*
X257160000Y-73570000D03*
X257160000Y-71030000D03*
X257160000Y-68490000D03*
X257160000Y-65950000D03*
X257160000Y-63410000D03*
X257160000Y-60870000D03*
X257160000Y-58330000D03*
X257160000Y-55790000D03*
X257160000Y-50710000D03*
X257160000Y-53250000D03*
X257160000Y-48170000D03*
X257160000Y-45630000D03*
X254620000Y-45630000D03*
X254620000Y-48170000D03*
X254620000Y-53250000D03*
X254620000Y-50710000D03*
X254620000Y-55790000D03*
X254620000Y-58330000D03*
X254620000Y-60870000D03*
X254620000Y-63410000D03*
X254620000Y-65950000D03*
X254620000Y-68490000D03*
X254620000Y-71030000D03*
X254620000Y-73570000D03*
X254620000Y-76110000D03*
X254620000Y-78650000D03*
X254620000Y-81190000D03*
X254620000Y-83730000D03*
X254620000Y-86270000D03*
X254620000Y-88810000D03*
X254620000Y-91350000D03*
X254620000Y-93890000D03*
X254620000Y-96430000D03*
X254620000Y-98970000D03*
X254620000Y-101510000D03*
X254620000Y-104050000D03*
X254620000Y-106590000D03*
X254620000Y-109130000D03*
X254620000Y-111670000D03*
X254620000Y-114210000D03*
X254620000Y-116750000D03*
X254620000Y-119290000D03*
X254620000Y-121830000D03*
X254620000Y-124370000D03*
D21*
X262240000Y-129450000D03*
X262240000Y-40550000D03*
D22*
X168570000Y-129450000D03*
X168570000Y-40550000D03*
D23*
X220800000Y-48000000D03*
X226800000Y-48000000D03*
X223800000Y-43300000D03*
D11*
X181600000Y-61800000D03*
D12*
X184140000Y-61800000D03*
X181600000Y-64340000D03*
X184140000Y-64340000D03*
D11*
X181600000Y-68800000D03*
D12*
X184140000Y-68800000D03*
X181600000Y-71340000D03*
X184140000Y-71340000D03*
D11*
X194500000Y-45000000D03*
D12*
X197040000Y-45000000D03*
X194500000Y-47540000D03*
X197040000Y-47540000D03*
D11*
X194500000Y-51000000D03*
D12*
X197040000Y-51000000D03*
X194500000Y-53540000D03*
X197040000Y-53540000D03*
D11*
X178750000Y-48250000D03*
D12*
X181290000Y-48250000D03*
X178750000Y-50790000D03*
X181290000Y-50790000D03*
D11*
X234980000Y-56300000D03*
D12*
X232440000Y-56300000D03*
X229900000Y-56300000D03*
D24*
X176000000Y-95000000D03*
X171000000Y-95000000D03*
X176000000Y-93000000D03*
X171000000Y-93000000D03*
X176000000Y-91000000D03*
X171000000Y-91000000D03*
X176000000Y-89000000D03*
X171000000Y-89000000D03*
X176000000Y-87000000D03*
X171000000Y-87000000D03*
X176000000Y-84000000D03*
X171000000Y-84000000D03*
X176000000Y-82000000D03*
X171000000Y-82000000D03*
X176000000Y-80000000D03*
X171000000Y-80000000D03*
X176000000Y-78000000D03*
X171000000Y-78000000D03*
X176000000Y-76000000D03*
X171000000Y-76000000D03*
X176000000Y-73000000D03*
X171000000Y-73000000D03*
X176000000Y-71000000D03*
X171000000Y-71000000D03*
X176000000Y-69000000D03*
X171000000Y-69000000D03*
X176000000Y-67000000D03*
X171000000Y-67000000D03*
X176000000Y-65000000D03*
X171000000Y-65000000D03*
D25*
X231000000Y-76375000D03*
D26*
X238620000Y-99235000D03*
X231000000Y-78915000D03*
X238620000Y-96695000D03*
X231000000Y-81455000D03*
X238620000Y-94155000D03*
X231000000Y-83995000D03*
X238620000Y-91615000D03*
X231000000Y-86535000D03*
X238620000Y-89075000D03*
X231000000Y-89075000D03*
X238620000Y-86535000D03*
X231000000Y-91615000D03*
X238620000Y-83995000D03*
X231000000Y-94155000D03*
X238620000Y-81455000D03*
X231000000Y-96695000D03*
X238620000Y-78915000D03*
X231000000Y-99235000D03*
X238620000Y-76375000D03*
D25*
X250825000Y-98400000D03*
D26*
X243205000Y-80620000D03*
X250825000Y-95860000D03*
X243205000Y-83160000D03*
X250825000Y-93320000D03*
X243205000Y-85700000D03*
X250825000Y-90780000D03*
X243205000Y-88240000D03*
X250825000Y-88240000D03*
X243205000Y-90780000D03*
X250825000Y-85700000D03*
X243205000Y-93320000D03*
X250825000Y-83160000D03*
X243205000Y-95860000D03*
X250825000Y-80620000D03*
X243205000Y-98400000D03*
D24*
X204975000Y-96200000D03*
X200095000Y-96200000D03*
D11*
X217500000Y-62250000D03*
D12*
X214960000Y-62250000D03*
X217500000Y-59710000D03*
X214960000Y-59710000D03*
D27*
X165730000Y-112270000D03*
X167000000Y-111000000D03*
X165730000Y-109730000D03*
X168270000Y-112270000D03*
X168270000Y-109730000D03*
X165730000Y-106270000D03*
X167000000Y-105000000D03*
X165730000Y-103730000D03*
X168270000Y-106270000D03*
X168270000Y-103730000D03*
X165730000Y-55270000D03*
X167000000Y-54000000D03*
X165730000Y-52730000D03*
X168270000Y-55270000D03*
X168270000Y-52730000D03*
X165730000Y-49270000D03*
X167000000Y-48000000D03*
X165730000Y-46730000D03*
X168270000Y-49270000D03*
X168270000Y-46730000D03*
X165730000Y-61270000D03*
X167000000Y-60000000D03*
X165730000Y-58730000D03*
X168270000Y-61270000D03*
X168270000Y-58730000D03*
X165730000Y-100270000D03*
X167000000Y-99000000D03*
X165730000Y-97730000D03*
X168270000Y-100270000D03*
X168270000Y-97730000D03*
M02*
