G04 #@! TF.FileFunction,Paste,Top*
%FSLAX46Y46*%
G04 Gerber Fmt 4.6, Leading zero omitted, Abs format (unit mm)*
G04 Created by KiCad (PCBNEW 4.0.4-stable) date 02/10/17 17:21:09*
%MOMM*%
%LPD*%
G01*
G04 APERTURE LIST*
%ADD10C,0.150000*%
%ADD11R,1.250000X1.500000*%
%ADD12R,1.500000X1.250000*%
%ADD13R,1.198880X1.198880*%
%ADD14R,0.600000X1.200000*%
%ADD15R,1.200000X0.600000*%
%ADD16R,1.500000X1.300000*%
%ADD17R,1.500000X0.600000*%
%ADD18R,1.750000X0.450000*%
%ADD19R,1.350000X0.400000*%
%ADD20R,1.300000X1.500000*%
%ADD21R,1.400000X1.200000*%
%ADD22R,1.060000X0.650000*%
%ADD23R,0.250000X0.700000*%
%ADD24R,0.700000X0.250000*%
%ADD25R,1.035000X1.035000*%
%ADD26R,0.890000X0.420000*%
%ADD27R,0.600000X1.950000*%
%ADD28R,2.000000X3.800000*%
%ADD29R,2.000000X1.500000*%
%ADD30R,1.500000X0.400000*%
%ADD31R,1.900000X0.800000*%
%ADD32R,1.560000X0.650000*%
G04 APERTURE END LIST*
D10*
D11*
X191600000Y-99150000D03*
X191600000Y-101650000D03*
D12*
X187850000Y-93800000D03*
X185350000Y-93800000D03*
D11*
X247600000Y-113750000D03*
X247600000Y-116250000D03*
D12*
X228950000Y-105500000D03*
X231450000Y-105500000D03*
X212750000Y-129700000D03*
X215250000Y-129700000D03*
X212050000Y-116600000D03*
X209550000Y-116600000D03*
X210850000Y-129700000D03*
X208350000Y-129700000D03*
X203350000Y-121900000D03*
X200850000Y-121900000D03*
D11*
X174300000Y-122550000D03*
X174300000Y-125050000D03*
D13*
X181450980Y-118000000D03*
X183549020Y-118000000D03*
X181500000Y-116200000D03*
X183598040Y-116200000D03*
D14*
X209400000Y-127950000D03*
X210200000Y-127950000D03*
X211000000Y-127950000D03*
X211800000Y-127950000D03*
X212600000Y-127950000D03*
X213400000Y-127950000D03*
X214200000Y-127950000D03*
X215000000Y-127950000D03*
D15*
X216450000Y-126500000D03*
X216450000Y-125700000D03*
X216450000Y-124900000D03*
X216450000Y-124100000D03*
X216450000Y-123300000D03*
X216450000Y-122500000D03*
X216450000Y-121700000D03*
X216450000Y-120900000D03*
D14*
X215000000Y-119450000D03*
X214200000Y-119450000D03*
X213400000Y-119450000D03*
X212600000Y-119450000D03*
X211800000Y-119450000D03*
X211000000Y-119450000D03*
X210200000Y-119450000D03*
X209400000Y-119450000D03*
D15*
X207950000Y-120900000D03*
X207950000Y-121700000D03*
X207950000Y-122500000D03*
X207950000Y-123300000D03*
X207950000Y-124100000D03*
X207950000Y-124900000D03*
X207950000Y-125700000D03*
X207950000Y-126500000D03*
D16*
X200650000Y-119700000D03*
X203350000Y-119700000D03*
X179100000Y-118000000D03*
X176400000Y-118000000D03*
X179150000Y-116100000D03*
X176450000Y-116100000D03*
X203550000Y-124200000D03*
X200850000Y-124200000D03*
X200650000Y-126300000D03*
X203350000Y-126300000D03*
D17*
X188100000Y-120410000D03*
X188100000Y-121680000D03*
X188100000Y-122950000D03*
X188100000Y-124220000D03*
X188100000Y-125490000D03*
X188100000Y-126760000D03*
X188100000Y-128030000D03*
X188100000Y-129300000D03*
X197400000Y-129300000D03*
X197400000Y-128030000D03*
X197400000Y-126760000D03*
X197400000Y-125490000D03*
X197400000Y-124220000D03*
X197400000Y-122950000D03*
X197400000Y-121680000D03*
X197400000Y-120410000D03*
D18*
X183900000Y-129125000D03*
X183900000Y-128475000D03*
X183900000Y-127825000D03*
X183900000Y-127175000D03*
X183900000Y-126525000D03*
X183900000Y-125875000D03*
X183900000Y-125225000D03*
X183900000Y-124575000D03*
X183900000Y-123925000D03*
X183900000Y-123275000D03*
X183900000Y-122625000D03*
X183900000Y-121975000D03*
X183900000Y-121325000D03*
X183900000Y-120675000D03*
X176700000Y-120675000D03*
X176700000Y-121325000D03*
X176700000Y-121975000D03*
X176700000Y-122625000D03*
X176700000Y-123275000D03*
X176700000Y-123925000D03*
X176700000Y-124575000D03*
X176700000Y-125225000D03*
X176700000Y-125875000D03*
X176700000Y-126525000D03*
X176700000Y-127175000D03*
X176700000Y-127825000D03*
X176700000Y-128475000D03*
X176700000Y-129125000D03*
D11*
X228200000Y-126350000D03*
X228200000Y-128850000D03*
X219500000Y-126350000D03*
X219500000Y-128850000D03*
D19*
X169125000Y-121300000D03*
X169125000Y-120650000D03*
X169125000Y-120000000D03*
X169125000Y-119350000D03*
X169125000Y-118700000D03*
D13*
X240300000Y-109049020D03*
X240300000Y-106950980D03*
X233400000Y-109649020D03*
X233400000Y-107550980D03*
D16*
X234550000Y-105500000D03*
X237250000Y-105500000D03*
D20*
X237200000Y-110750000D03*
X237200000Y-108050000D03*
D17*
X232850000Y-113855000D03*
X232850000Y-115125000D03*
X232850000Y-116395000D03*
X232850000Y-117665000D03*
X232850000Y-118935000D03*
X232850000Y-120205000D03*
X232850000Y-121475000D03*
X232850000Y-122745000D03*
X242150000Y-122745000D03*
X242150000Y-121475000D03*
X242150000Y-120205000D03*
X242150000Y-118935000D03*
X242150000Y-117665000D03*
X242150000Y-116395000D03*
X242150000Y-115125000D03*
X242150000Y-113855000D03*
D11*
X245700000Y-113750000D03*
X245700000Y-116250000D03*
D21*
X222800000Y-128400000D03*
X225000000Y-128400000D03*
X222800000Y-126800000D03*
X225000000Y-126800000D03*
D12*
X201950000Y-99900000D03*
X199450000Y-99900000D03*
X200150000Y-92500000D03*
X202650000Y-92500000D03*
X211250000Y-79300000D03*
X208750000Y-79300000D03*
D11*
X206300000Y-83050000D03*
X206300000Y-80550000D03*
D12*
X194850000Y-67050000D03*
X197350000Y-67050000D03*
X197350000Y-70050000D03*
X194850000Y-70050000D03*
X206200000Y-48250000D03*
X208700000Y-48250000D03*
X208700000Y-51000000D03*
X206200000Y-51000000D03*
X196250000Y-60900000D03*
X198750000Y-60900000D03*
X198750000Y-63650000D03*
X196250000Y-63650000D03*
X194750000Y-92000000D03*
X197250000Y-92000000D03*
X194750000Y-89000000D03*
X197250000Y-89000000D03*
X194750000Y-86000000D03*
X197250000Y-86000000D03*
X192350000Y-81200000D03*
X194850000Y-81200000D03*
X238450000Y-59600000D03*
X240950000Y-59600000D03*
X239450000Y-65700000D03*
X241950000Y-65700000D03*
D11*
X211600000Y-95150000D03*
X211600000Y-97650000D03*
D12*
X201150000Y-103800000D03*
X203650000Y-103800000D03*
D11*
X214000000Y-97850000D03*
X214000000Y-95350000D03*
D22*
X172400000Y-58300000D03*
X172400000Y-59250000D03*
X172400000Y-60200000D03*
X174600000Y-60200000D03*
X174600000Y-58300000D03*
D16*
X200450000Y-84400000D03*
X203150000Y-84400000D03*
X205750000Y-114400000D03*
X203050000Y-114400000D03*
X200450000Y-82500000D03*
X203150000Y-82500000D03*
D20*
X195100000Y-97750000D03*
X195100000Y-100450000D03*
D16*
X208650000Y-81200000D03*
X211350000Y-81200000D03*
X211850000Y-62000000D03*
X209150000Y-62000000D03*
X209150000Y-60000000D03*
X211850000Y-60000000D03*
D20*
X205100000Y-67150000D03*
X205100000Y-64450000D03*
X202850000Y-64450000D03*
X202850000Y-67150000D03*
X200600000Y-67200000D03*
X200600000Y-69900000D03*
X191350000Y-67450000D03*
X191350000Y-70150000D03*
X202850000Y-72650000D03*
X202850000Y-69950000D03*
X205350000Y-69950000D03*
X205350000Y-72650000D03*
X213700000Y-48100000D03*
X213700000Y-45400000D03*
D16*
X211300000Y-45500000D03*
X208600000Y-45500000D03*
D20*
X211450000Y-48150000D03*
X211450000Y-50850000D03*
X203450000Y-48150000D03*
X203450000Y-50850000D03*
X196000000Y-58500000D03*
X196000000Y-55800000D03*
X198750000Y-55800000D03*
X198750000Y-58500000D03*
X192750000Y-58750000D03*
X192750000Y-56050000D03*
X190500000Y-61050000D03*
X190500000Y-63750000D03*
X191600000Y-94250000D03*
X191600000Y-96950000D03*
X187800000Y-89050000D03*
X187800000Y-91750000D03*
X192200000Y-85950000D03*
X192200000Y-83250000D03*
X209200000Y-95050000D03*
X209200000Y-97750000D03*
D16*
X198950000Y-103800000D03*
X196250000Y-103800000D03*
X213550000Y-100200000D03*
X210850000Y-100200000D03*
D23*
X207250000Y-91900000D03*
X207750000Y-91900000D03*
X208250000Y-91900000D03*
X208750000Y-91900000D03*
X209250000Y-91900000D03*
X209750000Y-91900000D03*
X210250000Y-91900000D03*
X210750000Y-91900000D03*
D24*
X211400000Y-91250000D03*
X211400000Y-90750000D03*
X211400000Y-90250000D03*
X211400000Y-89750000D03*
X211400000Y-89250000D03*
X211400000Y-88750000D03*
X211400000Y-88250000D03*
X211400000Y-87750000D03*
D23*
X210750000Y-87100000D03*
X210250000Y-87100000D03*
X209750000Y-87100000D03*
X209250000Y-87100000D03*
X208750000Y-87100000D03*
X208250000Y-87100000D03*
X207750000Y-87100000D03*
X207250000Y-87100000D03*
D24*
X206600000Y-87750000D03*
X206600000Y-88250000D03*
X206600000Y-88750000D03*
X206600000Y-89250000D03*
X206600000Y-89750000D03*
X206600000Y-90250000D03*
X206600000Y-90750000D03*
X206600000Y-91250000D03*
D25*
X209862500Y-88637500D03*
X208137500Y-88637500D03*
X209862500Y-90362500D03*
X208137500Y-90362500D03*
D26*
X213745000Y-66675000D03*
X213745000Y-67325000D03*
X213745000Y-67975000D03*
X213745000Y-68625000D03*
X213745000Y-69275000D03*
X213745000Y-69925000D03*
X217955000Y-69925000D03*
X217955000Y-69275000D03*
X217955000Y-68625000D03*
X217955000Y-67975000D03*
X217955000Y-67325000D03*
X217955000Y-66675000D03*
D27*
X227215000Y-78300000D03*
X225945000Y-78300000D03*
X224675000Y-78300000D03*
X223405000Y-78300000D03*
X222135000Y-78300000D03*
X220865000Y-78300000D03*
X219595000Y-78300000D03*
X218325000Y-78300000D03*
X217055000Y-78300000D03*
X215785000Y-78300000D03*
X215785000Y-87700000D03*
X217055000Y-87700000D03*
X218325000Y-87700000D03*
X219595000Y-87700000D03*
X220865000Y-87700000D03*
X222135000Y-87700000D03*
X223405000Y-87700000D03*
X224675000Y-87700000D03*
X225945000Y-87700000D03*
X227215000Y-87700000D03*
D28*
X229750000Y-62800000D03*
D29*
X236050000Y-62800000D03*
X236050000Y-60500000D03*
X236050000Y-65100000D03*
D30*
X236230000Y-72950000D03*
X236230000Y-72300000D03*
X236230000Y-71650000D03*
X233570000Y-71650000D03*
X233570000Y-72950000D03*
D31*
X208100000Y-101950000D03*
X208100000Y-100050000D03*
X205100000Y-101000000D03*
D11*
X211850000Y-66550000D03*
X211850000Y-64050000D03*
X219600000Y-66800000D03*
X219600000Y-64300000D03*
D32*
X189150000Y-46300000D03*
X189150000Y-47250000D03*
X189150000Y-48200000D03*
X191850000Y-48200000D03*
X191850000Y-46300000D03*
X172000000Y-51600000D03*
X172000000Y-52550000D03*
X172000000Y-53500000D03*
X174700000Y-53500000D03*
X174700000Y-51600000D03*
D12*
X201050000Y-89500000D03*
X203550000Y-89500000D03*
D11*
X213200000Y-85850000D03*
X213200000Y-88350000D03*
D12*
X243750000Y-75000000D03*
X241250000Y-75000000D03*
M02*
