M48
;DRILL file {KiCad 4.0.7} date 08/08/18 19:17:46
;FORMAT={-:-/ absolute / inch / decimal}
FMAT,2
INCH,TZ
T1C0.024
T2C0.025
T3C0.026
T4C0.031
T5C0.033
T6C0.035
T7C0.039
T8C0.039
T9C0.110
%
G90
G05
M72
T2
X6.6299Y-2.622
X6.6299Y-2.7205
X6.6299Y-2.8189
X6.6299Y-3.0315
X6.6299Y-3.1496
X6.6299Y-3.2677
X6.6299Y-3.4646
X6.6299Y-3.5827
X6.6299Y-3.7008
X6.7323Y-2.0669
X6.7559Y-2.3307
X6.8228Y-4.9173
X6.9685Y-2.6378
X6.9685Y-2.7008
X6.9685Y-2.7559
X6.9685Y-2.811
X6.9685Y-3.6929
X6.9685Y-3.748
X6.9764Y-3.1024
X6.9764Y-3.1811
X6.9764Y-3.2677
X6.9921Y-3.4724
X6.9921Y-3.6299
X7.0283Y-4.8271
X7.0315Y-5.0197
X7.1811Y-4.9291
X7.2598Y-3.7205
X7.3228Y-3.4724
X7.3228Y-3.5354
X7.3465Y-5.0709
X7.3622Y-4.7913
X7.3701Y-3.5039
X7.4093Y-1.8571
X7.4409Y-3.7559
X7.4488Y-3.4567
X7.4724Y-3.685
X7.4882Y-3.3937
X7.5039Y-3.7165
X7.5039Y-3.7638
X7.5118Y-3.6535
X7.5157Y-4.0354
X7.5197Y-3.4331
X7.5354Y-3.3858
X7.5591Y-2.1929
X7.6811Y-2.2008
X7.685Y-4.0591
X7.7087Y-3.1654
X7.7633Y-4.7171
X7.7717Y-5.122
X7.8307Y-4.7992
X7.8465Y-3.6575
X7.8543Y-2.2008
X7.8622Y-3.2165
X7.8627Y-4.6733
X7.8661Y-2.5118
X7.9094Y-3.4882
X7.9488Y-2.8583
X7.9567Y-2.5315
X7.9606Y-4.4724
X7.9921Y-3.9213
X8.0315Y-3.2185
X8.0315Y-3.3268
X8.0512Y-4.1063
X8.0551Y-3.5433
X8.0695Y-3.4996
X8.0945Y-3.1339
X8.1102Y-2.5512
X8.1102Y-3.6378
X8.1142Y-2.8307
X8.1299Y-4.7933
X8.1417Y-4.0315
X8.1481Y-4.7503
X8.1496Y-4.5039
X8.1654Y-5.0827
X8.1693Y-3.3858
X8.185Y-3.0945
X8.189Y-2.4016
X8.2047Y-4.6142
X8.219Y-3.384
X8.2244Y-2.0433
X8.2244Y-3.5236
X8.2323Y-3.6575
X8.2356Y-4.6615
X8.2374Y-4.012
X8.248Y-4.8228
X8.252Y-4.9685
X8.2756Y-4.6614
X8.2835Y-4.8583
X8.2953Y-3.6535
X8.3071Y-2.4508
X8.3071Y-2.5472
X8.3071Y-2.6299
X8.3071Y-3.8819
X8.3071Y-4.9882
X8.3189Y-1.7598
X8.3386Y-3.7087
X8.3386Y-4.7598
X8.3411Y-5.126
X8.3622Y-2.0157
X8.3701Y-4.9843
X8.3712Y-3.4989
X8.3778Y-3.8356
X8.38Y-2.7308
X8.4173Y-3.7165
X8.4213Y-3.3465
X8.4353Y-4.5984
X8.4449Y-4.7677
X8.4488Y-1.7835
X8.4565Y-3.7328
X8.4567Y-3.8346
X8.5157Y-5.1063
X8.5271Y-4.6066
X8.5391Y-3.3302
X8.5709Y-3.0433
X8.5938Y-4.8222
X8.6024Y-2.7402
X8.6176Y-3.7078
X8.6308Y-4.8069
X8.6532Y-3.6638
X8.6573Y-3.7187
X8.662Y-4.9448
X8.6732Y-2.5
X8.685Y-2.6417
X8.7092Y-3.6813
X8.7123Y-3.7211
X8.7214Y-4.7371
X8.7413Y-4.9673
X8.7441Y-3.1299
X8.748Y-3.4055
X8.8886Y-5.0799
X8.9449Y-3.5079
X8.9606Y-3.122
X8.9764Y-5.1029
X9.1457Y-4.126
X9.1811Y-4.3543
X9.2008Y-2.8937
X9.2165Y-4.7835
X9.2244Y-4.4803
X9.2244Y-4.5354
X9.2402Y-2.563
X9.3307Y-2.811
X9.3465Y-2.5669
X9.3701Y-4.1299
X9.4016Y-2.6181
X9.4409Y-2.5551
X9.4646Y-4.1732
X9.4882Y-4.5315
X9.5197Y-2.374
X9.5236Y-2.315
X9.5551Y-2.5591
X9.563Y-2.6181
X9.5787Y-4.8071
X9.5866Y-2.9921
X9.7047Y-4.6063
T4
X7.8778Y-3.7874
X8.0699Y-3.7874
X9.0945Y-3.0069
X9.0945Y-3.1069
X9.0945Y-3.2069
X9.0945Y-3.3069
X9.0945Y-3.4069
X9.0945Y-3.5069
X9.0945Y-3.6069
X9.0945Y-3.7069
X9.0945Y-3.8069
X9.0945Y-3.9069
X9.3945Y-3.0069
X9.3945Y-3.1069
X9.3945Y-3.2069
X9.3945Y-3.3069
X9.3945Y-3.4069
X9.3945Y-3.5069
X9.3945Y-3.6069
X9.3945Y-3.7069
X9.3945Y-3.8069
X9.3945Y-3.9069
X9.575Y-3.174
X9.575Y-3.274
X9.575Y-3.374
X9.575Y-3.474
X9.575Y-3.574
X9.575Y-3.674
X9.575Y-3.774
X9.575Y-3.874
X9.875Y-3.174
X9.875Y-3.274
X9.875Y-3.374
X9.875Y-3.474
X9.875Y-3.574
X9.875Y-3.674
X9.875Y-3.774
X9.875Y-3.874
T5
X6.5248Y-1.8398
X6.5248Y-1.9398
X6.5248Y-2.076
X6.5248Y-2.176
X6.5248Y-2.3122
X6.5248Y-2.4122
X6.5248Y-3.9264
X6.5248Y-4.0264
X6.5248Y-4.1232
X6.5248Y-4.2232
X6.5248Y-4.3201
X6.5248Y-4.4201
X6.5748Y-1.8898
X6.5748Y-2.126
X6.5748Y-2.3622
X6.5748Y-3.9764
X6.5748Y-4.1732
X6.5748Y-4.3701
X6.6248Y-1.8398
X6.6248Y-1.9398
X6.6248Y-2.076
X6.6248Y-2.176
X6.6248Y-2.3122
X6.6248Y-2.4122
X6.6248Y-3.9264
X6.6248Y-4.0264
X6.6248Y-4.1232
X6.6248Y-4.2232
X6.6248Y-4.3201
X6.6248Y-4.4201
T6
X6.6929Y-2.5197
X6.6929Y-2.6181
X6.6929Y-2.7165
X6.6929Y-2.815
X6.6929Y-2.9134
X6.6929Y-2.9921
X6.6929Y-3.0906
X6.6929Y-3.189
X6.6929Y-3.2874
X6.6929Y-3.3858
X6.6929Y-3.4646
X6.6929Y-3.563
X6.6929Y-3.6614
X6.6929Y-3.7598
X6.6929Y-3.8583
X6.8898Y-2.5197
X6.8898Y-2.6181
X6.8898Y-2.7165
X6.8898Y-2.815
X6.8898Y-2.9134
X6.8898Y-2.9921
X6.8898Y-3.0906
X6.8898Y-3.189
X6.8898Y-3.2874
X6.8898Y-3.3858
X6.8898Y-3.4646
X6.8898Y-3.563
X6.8898Y-3.6614
X6.8898Y-3.7598
X6.8898Y-3.8583
T7
X7.0374Y-1.8996
X7.0374Y-1.9996
X7.0374Y-2.1752
X7.0374Y-2.2752
X7.1374Y-1.8996
X7.1374Y-1.9996
X7.1374Y-2.1752
X7.1374Y-2.2752
X7.1496Y-2.4331
X7.1496Y-2.5331
X7.1496Y-2.7087
X7.1496Y-2.8087
X7.2496Y-2.4331
X7.2496Y-2.5331
X7.2496Y-2.7087
X7.2496Y-2.8087
X7.6575Y-1.7717
X7.6575Y-1.8717
X7.6575Y-2.0079
X7.6575Y-2.1079
X7.7575Y-1.7717
X7.7575Y-1.8717
X7.7575Y-2.0079
X7.7575Y-2.1079
X8.463Y-2.3508
X8.463Y-2.4508
X8.563Y-2.3508
X8.563Y-2.4508
X8.5827Y-4.2898
X8.5827Y-4.3898
X8.5827Y-4.4898
X8.6827Y-4.2898
X8.6827Y-4.3898
X8.6827Y-4.4898
X9.0157Y-4.2685
X9.0157Y-4.3685
X9.0157Y-4.4685
X9.0512Y-2.2165
X9.1512Y-2.2165
X9.2512Y-2.2165
X10.0244Y-1.7965
X10.0244Y-1.8965
X10.0244Y-1.9965
X10.0244Y-2.0965
X10.0244Y-2.1965
X10.0244Y-2.2965
X10.0244Y-2.3965
X10.0244Y-2.4965
X10.0244Y-2.5965
X10.0244Y-2.6965
X10.0244Y-2.7965
X10.0244Y-2.8965
X10.0244Y-2.9965
X10.0244Y-3.0965
X10.0244Y-3.1965
X10.0244Y-3.2965
X10.0244Y-3.3965
X10.0244Y-3.4965
X10.0244Y-3.5965
X10.0244Y-3.6965
X10.0244Y-3.7965
X10.0244Y-3.8965
X10.0244Y-3.9965
X10.0244Y-4.0965
X10.0244Y-4.1965
X10.0244Y-4.2965
X10.0244Y-4.3965
X10.0244Y-4.4965
X10.0244Y-4.5965
X10.0244Y-4.6965
X10.0244Y-4.7965
X10.0244Y-4.8965
X10.1244Y-1.7965
X10.1244Y-1.8965
X10.1244Y-1.9965
X10.1244Y-2.0965
X10.1244Y-2.1965
X10.1244Y-2.2965
X10.1244Y-2.3965
X10.1244Y-2.4965
X10.1244Y-2.5965
X10.1244Y-2.6965
X10.1244Y-2.7965
X10.1244Y-2.8965
X10.1244Y-2.9965
X10.1244Y-3.0965
X10.1244Y-3.1965
X10.1244Y-3.2965
X10.1244Y-3.3965
X10.1244Y-3.4965
X10.1244Y-3.5965
X10.1244Y-3.6965
X10.1244Y-3.7965
X10.1244Y-3.8965
X10.1244Y-3.9965
X10.1244Y-4.0965
X10.1244Y-4.1965
X10.1244Y-4.2965
X10.1244Y-4.3965
X10.1244Y-4.4965
X10.1244Y-4.5965
X10.1244Y-4.6965
X10.1244Y-4.7965
X10.1244Y-4.8965
X10.2244Y-1.7965
X10.2244Y-1.8965
X10.2244Y-1.9965
X10.2244Y-2.0965
X10.2244Y-2.1965
X10.2244Y-2.2965
X10.2244Y-2.3965
X10.2244Y-2.4965
X10.2244Y-2.5965
X10.2244Y-2.6965
X10.2244Y-2.7965
X10.2244Y-2.8965
X10.2244Y-2.9965
X10.2244Y-3.0965
X10.2244Y-3.1965
X10.2244Y-3.2965
X10.2244Y-3.3965
X10.2244Y-3.4965
X10.2244Y-3.5965
X10.2244Y-3.6965
X10.2244Y-3.7965
X10.2244Y-3.8965
X10.2244Y-3.9965
X10.2244Y-4.0965
X10.2244Y-4.1965
X10.2244Y-4.2965
X10.2244Y-4.3965
X10.2244Y-4.4965
X10.2244Y-4.5965
X10.2244Y-4.6965
X10.2244Y-4.7965
X10.2244Y-4.8965
T8
X9.7283Y-4.8465
X9.7283Y-5.0434
T9
X6.6366Y-1.5965
X6.6366Y-5.0965
X10.3244Y-1.5965
X10.3244Y-5.0965
T1
X6.5669Y-4.56G85X6.5394Y-4.56
G05
X6.5669Y-4.8888G85X6.5394Y-4.8888
G05
T3
X6.6752Y-4.6368G85X6.6673Y-4.6368
G05
X6.6752Y-4.812G85X6.6673Y-4.812
G05
T7
X8.6929Y-1.9291G85X8.6929Y-1.8504
G05
X8.8504Y-1.7047G85X8.7717Y-1.7047
G05
X8.9291Y-1.9291G85X8.9291Y-1.8504
G05
T0
M30
